<svg xmlns="http://www.w3.org/2000/svg" viewBox="0 0 1418 1708" role="img" aria-labelledby="title desc">
  <title id="title">Map to California Republic St Ives</title>
  <desc id="desc">Static map image showing California Republic St Ives near St Ives Shopping Village, Green Parade, Denley Lane and Rosedale Road.</desc>
  <defs>
    <filter id="shadow" x="-25%" y="-25%" width="150%" height="150%">
      <feDropShadow dx="0" dy="8" stdDeviation="8" flood-color="#3c4651" flood-opacity="0.24"/>
    </filter>
    <style>
      .land{fill:#f7f7f5}.park{fill:#a7e8bf}.shop{fill:#fbf6e8}.building{fill:#f6f1e6;stroke:#e8deca;stroke-width:4}.minor{fill:none;stroke:#b7cad8;stroke-width:34;stroke-linecap:round;stroke-linejoin:round}.main{fill:none;stroke:#9fb6c7;stroke-width:50;stroke-linecap:round;stroke-linejoin:round}.highway{fill:none;stroke:#80a0b4;stroke-width:78;stroke-linecap:round}.highway-green{fill:none;stroke:#0ad487;stroke-width:42;stroke-linecap:round}.path{fill:none;stroke:#72bda4;stroke-width:5}.label{font-family:Arial,Helvetica,sans-serif;fill:#46515d;font-weight:700}.small{font-size:32px}.medium{font-size:48px}.large{font-size:58px}.poi{filter:url(#shadow)}
    </style>
  </defs>
  <rect class="land" width="1418" height="1708"/>
  <path class="park" d="M0 0h930l-38 184-26 6-188-2-248-62-245-52-174 72L0 217z"/>
  <path class="path" d="M50 432 68 210 188 72M188 72l145 18 256 82 96 30 154 44 389 60"/>
  <path class="shop" d="M0 520h520l-83 438H0z"/>
  <path class="building" d="M91 602h282v168H91zM444 666h258v246H444zM870 704h235v116H870zM827 873h262v125H827zM1166 1260h204v218h-204z"/>
  <path class="building" d="M610 246h192l-24 138-143-8zM623 216h194v146H623z"/>
  <path class="minor" d="M-20 451 472 492 811 526 914 530 1048 498 1144 430 1238 424"/>
  <path class="main" d="M-20 1045 518 1077 782 1055 999 967 1202 963 1350 1017"/>
  <path class="minor" d="M477 492 467 798 520 901M785 529l4 146-16 186-95 125M1086 494l191-66 77-42M1060 840h242l55-32M1058 498l28 344M1110 963l54-351"/>
  <path class="main" d="M1254 -60 1220 191 1195 392 1180 640 1168 842"/>
  <path class="highway" d="M-50 1278 429 1285 638 1295 896 1313 1468 1508" opacity=".5"/>
  <path class="highway-green" d="M-50 1250 427 1260 640 1267 900 1285 1468 1482"/>
  <path class="highway" d="M-48 1136 507 1151 740 1119 1410 725" opacity=".5"/>
  <path class="highway-green" d="M-48 1110 506 1126 735 1092 1410 695"/>
  <path class="highway" d="M1230 314 1213 472 1200 673 1190 827" opacity=".5"/>
  <path class="highway-green" d="M1250 310 1234 475 1220 676 1212 825"/>
  <path class="minor" d="M1022 1565 1032 1278 1054 1108 1095 958"/>
  <path class="minor" d="M1030 1407 1290 1428 1460 1444"/>
  <text class="label large" x="0" y="418" transform="rotate(8 0 418)">Green Parade</text>
  <text class="label large" fill="#2378d8" x="25" y="775">St Ives Shopping Village</text>
  <text class="label large" x="265" y="1086" transform="rotate(-2 265 1086)">Denley Ln</text>
  <text class="label large" x="1088" y="1230" transform="rotate(-83 1088 1230)">Rosedale Rd</text>
  <text class="label large" x="720" y="1466" transform="rotate(7 720 1466)">Porters Ln</text>
  <text class="label medium" fill="#188159" x="245" y="185">St Ives Playground</text>
  <g class="poi" transform="translate(155 132)"><path fill="#fff" d="M0 0c-31 0-56 25-56 56 0 45 56 91 56 91s56-46 56-91C56 25 31 0 0 0z"/><circle r="36" cx="0" cy="55" fill="#17a66f"/><path fill="#fff" d="M-8 76h16V55h17L0 18-25 55h17z"/></g>
  <g class="poi" transform="translate(348 560)"><path fill="#fff" d="M0 0c-31 0-56 25-56 56 0 45 56 91 56 91s56-46 56-91C56 25 31 0 0 0z"/><circle r="36" cx="0" cy="55" fill="#ef476f"/><path fill="none" stroke="#fff" stroke-width="8" d="M-18 62h36V43L0 28l-18 15zM-8 62V47h16v15"/></g>
  <g class="poi" transform="translate(1045 943)"><circle r="42" fill="#ff861f"/><text x="0" y="14" font-size="43" font-family="Arial" text-anchor="middle" fill="#fff">🍴</text></g>
  <g class="poi" transform="translate(1235 1300)"><circle r="42" fill="#ff861f"/><text x="0" y="14" font-size="43" font-family="Arial" text-anchor="middle" fill="#fff">🍴</text></g>
  <g class="poi" transform="translate(371 894)"><circle r="43" fill="#6572d5"/><text x="0" y="15" font-size="58" font-family="Arial" font-weight="700" text-anchor="middle" fill="#fff">$</text></g>
  <g class="poi" transform="translate(1038 665)">
    <path fill="#e23130" d="M0-38c-44 0-80 36-80 80 0 64 80 145 80 145s80-81 80-145c0-44-36-80-80-80z"/>
    <circle cx="0" cy="43" r="31" fill="#b60017"/>
  </g>
  <text font-family="Arial,Helvetica,sans-serif" font-size="52" fill="#be1e2d" x="1090" y="660">California</text>
  <text font-family="Arial,Helvetica,sans-serif" font-size="52" fill="#be1e2d" x="1098" y="722">St Ives</text>
  <text font-family="Arial,Helvetica,sans-serif" font-size="36" fill="#be1e2d" x="1100" y="774">Brunch</text>
</svg>
